<svg xmlns="http://www.w3.org/2000/svg" width="20" height="18" viewBox="0 0 20 18">
    <path fill="#FFF" fill-rule="nonzero" d="M17.76 9.923c0-1.11-.518-2.147-1.257-2.886.592-.519.963-1.184 1.184-1.996 0-.22.073-.519.073-.813-.371.147-.739.22-1.11.22a3.316 3.316 0 0 1-3.33-3.33c0-.371.073-.739.22-1.11-.298 0-.519.073-.813.147C10.952.6 9.621 2.15 9.621 4.077c0 .298 0 .592.073.89C9.03 4.67 8.217 4.45 7.4 4.45a5.148 5.148 0 0 0-5.18 5.18v.294C.89 10.515 0 11.772 0 13.327a3.664 3.664 0 0 0 3.698 3.698h12.577a3.664 3.664 0 0 0 3.698-3.698c.008-1.555-.882-2.812-2.213-3.404zM12.58.97v.147c0 2.22 1.85 4.07 4.07 4.07h.147c-.22.518-.518 1.036-.963 1.404a3.903 3.903 0 0 0-2.22-.666c-.813 0-1.479.221-2.148.592-.22-.294-.518-.592-.739-.812a3.796 3.796 0 0 1-.371-1.629c.004-1.477.967-2.661 2.224-3.106zm3.699 15.315H3.702a2.967 2.967 0 0 1-2.96-2.96c0-1.403.964-2.587 2.295-2.885-.074-.298-.074-.518-.074-.812a4.454 4.454 0 0 1 4.441-4.441c1.702 0 3.254.963 3.996 2.44a3.245 3.245 0 0 1 2.294-.963c1.85 0 3.331 1.478 3.331 3.331v.445c1.257.294 2.22 1.478 2.22 2.886a2.978 2.978 0 0 1-2.966 2.96z"/>
</svg>
